<?xml version="1.0" encoding="iso-8859-1"?>
<!-- Generator: Adobe Illustrator 19.0.0, SVG Export Plug-In . SVG Version: 6.00 Build 0)  -->
<svg version="1.1" id="Capa_1" xmlns="http://www.w3.org/2000/svg" xmlns:xlink="http://www.w3.org/1999/xlink" x="0px" y="0px"
	 viewBox="0 0 511.999 511.999" style="enable-background:new 0 0 511.999 511.999;" xml:space="preserve">
<g>
	<path style="fill:#009245;" d="M341.33,170.677h17.066l0,0c0,42.418-34.38,76.797-76.797,76.797h-17.066l0,0
		C264.532,205.056,298.912,170.677,341.33,170.677z"/>
	<path style="fill:#009245;" d="M264.532,247.474h-17.066c-42.418,0-76.797-34.38-76.797-76.797l0,0h17.066
		C230.144,170.677,264.532,205.056,264.532,247.474L264.532,247.474z"/>
</g>
<circle style="fill:#FED856;" cx="264.524" cy="85.329" r="76.797"/>
<path style="fill:#A67C52;" d="M204.801,247.474h119.463v51.198H204.801V247.474z"/>
<path style="fill:#754C24;" d="M204.801,298.672c-62.027,16.75-76.797,74.656-76.797,123.567c0,57.871,61.122,81.226,136.529,81.226
	s136.529-23.355,136.529-81.226c0-48.911-14.771-106.817-76.797-123.567H204.801z"/>
<path d="M273.065,136.544v-9.77c12.8-3.985,19.942-17.587,15.965-30.378c-1.971-6.323-6.434-11.571-12.364-14.523l-16.631-8.311
	c-3.601-1.792-5.077-6.161-3.285-9.77c1.229-2.483,3.763-4.053,6.536-4.045h2.492c4.019,0,7.279,3.26,7.287,7.287v1.246h17.066
	v-1.246c-0.043-10.607-6.946-19.959-17.066-23.116v-9.77h-17.066v9.77c-12.8,3.985-19.942,17.587-15.965,30.378
	c1.971,6.323,6.434,11.571,12.364,14.523l16.631,8.311c3.609,1.792,5.077,6.161,3.285,9.77c-1.229,2.483-3.763,4.053-6.536,4.045
	h-2.492c-4.019-0.009-7.279-3.268-7.287-7.287v-1.246h-17.066v1.246c0.043,10.607,6.946,19.959,17.066,23.116v9.77H273.065z"/>
<path d="M209.221,348.702l-8.849-14.591c-25.019,15.172-38.237,43.211-38.237,81.072c-0.102,18.064,9.292,34.858,24.746,44.21
	l9.386-14.25c-10.683-6.169-17.211-17.621-17.066-29.96C179.202,393.167,184.407,363.754,209.221,348.702z"/>
<path d="M460.792,324.271v-17.066h17.066v-17.066h-17.066v-17.066h-17.066v17.066H426.66v17.066h17.066v17.066H460.792z"/>
<path d="M51.206,281.606v17.066H34.14v17.066h17.066v17.066h17.066v-17.066h17.066v-17.066H68.272v-17.066H51.206z"/>
<path d="M85.338,51.214V68.28H68.272v17.066h17.066v17.066h17.066V85.346h17.066V68.28h-17.066V51.214H85.338z"/>
<path d="M435.193,153.61v-17.066h17.066v-17.066h-17.066v-17.066h-17.066v17.066h-17.066v17.066h17.066v17.066H435.193z"/>
<path d="M213.334,76.813H230.4v17.066h-17.066V76.813z"/>
<path d="M298.665,76.813h17.066v17.066h-17.066V76.813z"/>
<path d="M409.594,422.239c0-67.676-27.246-113.421-76.797-129.805v-44.961c-0.017-2.483-1.135-4.83-3.055-6.408
	c23.261-15.88,37.178-42.222,37.187-70.389c0-4.71-3.823-8.533-8.533-8.533H341.33c-26.905,0.026-52.214,12.757-68.264,34.346
	v-26.248c46.889-4.71,81.081-46.548,76.371-93.437S302.888-4.277,255.999,0.434s-81.081,46.548-76.371,93.437
	c4.062,40.378,35.992,72.309,76.371,76.371v26.248c-16.051-21.589-41.36-34.32-68.264-34.346h-17.066
	c-4.71,0-8.533,3.823-8.533,8.533c0.009,28.168,13.926,54.509,37.187,70.389c-1.92,1.579-3.038,3.925-3.055,6.408v44.961
	c-49.551,16.383-76.797,62.129-76.797,129.805c0,57.043,52.905,89.759,145.062,89.759S409.594,479.283,409.594,422.239z
	 M341.33,179.21h8.004c-4.343,34.107-33.347,59.689-67.735,59.731h-8.004C277.938,204.826,306.942,179.252,341.33,179.21z
	 M196.268,85.346c0-37.699,30.565-68.264,68.264-68.264s68.264,30.565,68.264,68.264s-30.565,68.264-68.264,68.264
	C226.85,153.568,196.311,123.028,196.268,85.346z M179.731,179.21h8.004c34.388,0.043,63.392,25.625,67.735,59.731h-8.004
	C213.078,238.89,184.074,213.316,179.731,179.21z M264.532,256.007h51.198v34.132H213.334v-34.132H264.532z M264.532,494.932
	c-38.484,0-127.996-7.082-127.996-72.693c0-43.655,12.083-98.907,69.416-115.034h117.159
	c57.334,16.127,69.416,71.379,69.416,115.034C392.528,487.85,303.016,494.932,264.532,494.932z"/>
<path d="M204.801,452.267h17.066v17.066h-17.066V452.267z"/>
<g>
</g>
<g>
</g>
<g>
</g>
<g>
</g>
<g>
</g>
<g>
</g>
<g>
</g>
<g>
</g>
<g>
</g>
<g>
</g>
<g>
</g>
<g>
</g>
<g>
</g>
<g>
</g>
<g>
</g>
</svg>
